<svg width="688.041" height="123.34" viewBox="0 0 688.041 123.34" xmlns="http://www.w3.org/2000/svg">
	<g id="svgGroup" stroke-linecap="round" fill-rule="evenodd" font-size="9pt" stroke="#000" stroke-width="0.25mm" fill="none" style="stroke:#000;stroke-width:0.25mm;fill:none">
		<path d="M 90.385 112.5 L 88.627 108.838 A 60.91 60.91 0 0 1 70.08 114.504 A 56.135 56.135 0 0 1 62.699 114.99 A 49.328 49.328 0 0 1 43.46 111.326 A 46.486 46.486 0 0 1 28.129 100.781 A 49.837 49.837 0 0 1 14.233 69.991 A 67.238 67.238 0 0 1 13.92 63.428 A 68.625 68.625 0 0 1 15.651 47.539 A 44.912 44.912 0 0 1 28.569 24.609 A 39.208 39.208 0 0 1 51.164 14.308 A 53.286 53.286 0 0 1 57.719 13.916 A 45.059 45.059 0 0 1 73.492 16.58 A 39.874 39.874 0 0 1 89.653 27.832 Q 101.957 41.748 101.957 64.746 A 53.255 53.255 0 0 1 101.399 72.759 Q 99.87 82.77 94.155 87.509 A 16.376 16.376 0 0 1 94.047 87.598 Q 90.971 90.088 87.748 90.088 Q 81.951 89.824 81.25 83.162 A 18.096 18.096 0 0 1 81.156 81.592 L 81.156 54.639 A 27.031 27.031 0 0 0 79.788 46.083 Q 75.581 34.061 58.476 33.841 A 49.415 49.415 0 0 0 58.158 33.838 Q 45.245 33.838 39.482 38.542 A 12.316 12.316 0 0 0 37.065 41.162 A 9.53 9.53 0 0 0 36.089 43.016 A 7.02 7.02 0 0 0 35.6 45.557 A 7.024 7.024 0 0 0 35.943 47.83 Q 36.66 49.933 38.876 50.887 A 8.13 8.13 0 0 0 39.994 51.27 A 10.675 10.675 0 0 0 41.752 51.416 A 8.227 8.227 0 0 0 44.47 50.996 Q 46.856 50.164 48.045 47.689 A 9.458 9.458 0 0 0 48.49 46.582 A 17.12 17.12 0 0 1 48.58 46.24 Q 48.728 45.699 49.008 44.759 A 154.812 154.812 0 0 1 49.076 44.531 A 19.735 19.735 0 0 1 49.818 42.206 Q 50.793 39.737 52.228 38.6 A 4.624 4.624 0 0 1 53.031 38.086 A 9.464 9.464 0 0 1 55.528 37.44 A 11.941 11.941 0 0 1 56.987 37.354 A 11.465 11.465 0 0 1 61.229 38.082 Q 66.115 40.017 67.019 47.092 A 23.118 23.118 0 0 1 67.094 47.754 A 36.098 36.098 0 0 1 67.231 50.253 A 40.89 40.89 0 0 1 67.24 51.123 L 67.24 59.619 Q 48.19 59.81 39.483 64.955 A 14.405 14.405 0 0 0 33.11 71.924 Q 31.938 74.561 31.938 78.076 Q 31.938 89.648 42.631 92.725 A 23.349 23.349 0 0 0 49.076 93.604 A 22.949 22.949 0 0 0 56.327 92.512 A 18.619 18.619 0 0 0 65.483 85.84 A 22.536 22.536 0 0 0 67.68 81.885 A 12.648 12.648 0 0 0 75.709 91.978 Q 79.829 93.694 85.99 93.75 A 28.365 28.365 0 0 0 96.016 92.051 Q 102.865 89.484 107.519 83.037 A 31.575 31.575 0 0 0 107.817 82.617 A 32.311 32.311 0 0 0 112.972 69.475 A 43.207 43.207 0 0 0 113.529 62.402 Q 113.529 33.984 93.168 19.775 A 55.554 55.554 0 0 0 68.504 10.437 A 72.139 72.139 0 0 0 58.891 9.814 A 73.296 73.296 0 0 0 39.614 12.21 A 52.042 52.042 0 0 0 13.334 28.564 A 54.847 54.847 0 0 0 0.473 58.728 A 72.711 72.711 0 0 0 0.004 67.09 A 52.534 52.534 0 0 0 3.832 87.442 A 49.105 49.105 0 0 0 18.022 106.348 A 59.853 59.853 0 0 0 54.448 120.174 A 76.328 76.328 0 0 0 58.158 120.264 Q 75.151 120.264 90.385 112.5 Z M 67.24 63.281 L 67.24 74.707 A 25.657 25.657 0 0 1 65.551 79.66 Q 62.919 85.263 57.865 87.158 A 11.713 11.713 0 0 1 55.934 87.632 A 9.5 9.5 0 0 1 54.496 87.744 Q 48.415 87.744 46.768 80.703 A 18.994 18.994 0 0 1 46.586 79.834 A 21.436 21.436 0 0 1 46.334 77.522 A 26.496 26.496 0 0 1 46.293 76.025 A 11.005 11.005 0 0 1 47.977 69.869 Q 50.978 65.275 59.33 63.867 Q 62.818 63.431 67.172 63.284 A 119.065 119.065 0 0 1 67.24 63.281 Z" id="0" vector-effect="non-scaling-stroke"/>
		<path d="M 168.168 95.947 L 170.365 95.947 L 200.834 11.133 L 208.158 11.133 L 208.158 7.324 L 183.403 7.324 L 183.403 11.133 L 195.121 11.133 L 171.537 77.637 L 145.61 11.133 L 157.328 11.133 L 157.328 7.324 L 121.586 7.324 L 121.586 11.133 L 129.789 11.133 L 158.207 84.668 Q 160.945 91.809 162.812 94.115 A 4.354 4.354 0 0 0 163.627 94.922 Q 164.794 95.664 166.651 95.869 A 13.862 13.862 0 0 0 168.168 95.947 Z" id="1" vector-effect="non-scaling-stroke"/>
		<path d="M 243.315 91.553 L 236.723 91.553 L 236.723 32.666 L 212.26 32.666 L 212.26 36.328 L 222.66 36.328 L 222.66 83.203 A 13.979 13.979 0 0 1 222.403 86.003 Q 221.562 90.104 217.973 91.113 A 15.732 15.732 0 0 1 216.534 91.345 Q 215.025 91.524 212.953 91.549 A 57.219 57.219 0 0 1 212.26 91.553 L 212.26 95.215 L 246.977 95.215 A 8.202 8.202 0 0 0 246.898 94.027 Q 246.59 91.933 245.072 91.699 A 6.826 6.826 0 0 0 244.429 91.604 Q 244.113 91.572 243.757 91.56 A 13.032 13.032 0 0 0 243.315 91.553 Z M 234.378 4.563 A 11.858 11.858 0 0 0 233.354 3.955 A 9.388 9.388 0 0 0 229.106 2.93 A 9.654 9.654 0 0 0 225.581 3.542 Q 222.666 4.676 221.049 7.91 A 9.388 9.388 0 0 0 220.024 12.158 A 10.313 10.313 0 0 0 220.546 15.542 Q 221.548 18.439 224.466 20.02 A 11.259 11.259 0 0 0 225.151 20.361 Q 227.055 21.24 229.106 21.24 A 10.679 10.679 0 0 0 232.57 20.71 Q 235.552 19.693 237.212 16.721 A 11.403 11.403 0 0 0 237.455 16.26 Q 238.334 14.355 238.334 12.158 Q 238.334 7.197 234.378 4.563 Z" id="2" vector-effect="non-scaling-stroke"/>
		<path d="M 286.381 91.553 L 279.35 91.553 L 279.35 69.434 L 286.088 63.135 L 305.57 95.215 L 326.957 95.215 A 8.202 8.202 0 0 0 326.879 94.027 Q 326.57 91.933 325.053 91.699 A 6.826 6.826 0 0 0 324.409 91.604 Q 324.094 91.572 323.737 91.56 A 13.032 13.032 0 0 0 323.295 91.553 L 319.34 91.553 L 295.756 53.906 L 308.354 42.041 A 61.256 61.256 0 0 1 310.471 40.129 Q 314.025 37.079 315.971 36.621 A 12.122 12.122 0 0 1 318.608 36.328 Q 320.068 36.328 320.95 35.915 A 2.181 2.181 0 0 0 322.27 34.131 A 7.452 7.452 0 0 0 322.416 32.666 L 297.514 32.666 L 297.514 36.328 L 308.354 36.328 L 279.35 63.574 L 279.35 0 L 254.154 0 L 254.154 3.662 L 265.287 3.662 L 265.287 83.203 A 12.709 12.709 0 0 1 265.006 85.995 Q 264.086 90.07 260.16 90.967 Q 258.061 91.527 254.491 91.552 A 48.123 48.123 0 0 1 254.154 91.553 L 254.154 95.215 L 290.043 95.215 A 8.202 8.202 0 0 0 289.965 94.027 Q 289.656 91.933 288.139 91.699 A 6.826 6.826 0 0 0 287.495 91.604 Q 287.179 91.572 286.823 91.56 A 13.032 13.032 0 0 0 286.381 91.553 Z" id="3" vector-effect="non-scaling-stroke"/>
		<path d="M 358.744 91.553 L 353.324 91.553 L 353.471 56.25 A 28.217 28.217 0 0 1 354.827 49.521 A 17.716 17.716 0 0 1 362.846 39.551 A 13.452 13.452 0 0 1 366.452 38.106 A 11.752 11.752 0 0 1 369.145 37.793 Q 377.934 37.793 380.424 46.582 A 25.037 25.037 0 0 1 381.15 52.133 A 28.004 28.004 0 0 1 381.156 52.734 L 381.156 83.203 A 18.087 18.087 0 0 1 380.988 85.778 Q 380.387 89.937 377.641 90.967 A 12.157 12.157 0 0 1 376.202 91.276 Q 374.693 91.514 372.621 91.547 A 42.916 42.916 0 0 1 371.928 91.553 L 371.928 95.215 L 405.326 95.215 A 8.202 8.202 0 0 0 405.248 94.027 Q 404.94 91.933 403.422 91.699 A 6.826 6.826 0 0 0 402.779 91.604 Q 402.463 91.572 402.106 91.56 A 13.032 13.032 0 0 0 401.664 91.553 L 395.365 91.553 L 395.365 54.639 Q 395.365 38.965 384.526 33.252 A 19.014 19.014 0 0 0 375.47 30.91 A 22.253 22.253 0 0 0 375.151 30.908 A 22.606 22.606 0 0 0 358.212 38.191 A 29.651 29.651 0 0 0 356.987 39.551 Q 354.643 42.48 353.178 45.85 L 352.445 32.666 L 329.301 32.666 L 329.301 36.328 L 339.262 36.328 L 339.262 83.203 A 15.553 15.553 0 0 1 339.059 85.828 Q 338.333 90.051 335.014 90.967 A 12.157 12.157 0 0 1 333.575 91.276 Q 332.066 91.514 329.994 91.547 A 42.916 42.916 0 0 1 329.301 91.553 L 329.301 95.215 L 362.406 95.215 A 8.202 8.202 0 0 0 362.328 94.027 Q 362.02 91.933 360.502 91.699 A 6.826 6.826 0 0 0 359.859 91.604 Q 359.543 91.572 359.186 91.56 A 13.032 13.032 0 0 0 358.744 91.553 Z" id="4" vector-effect="non-scaling-stroke"/>
		<path d="M 471.391 80.713 L 467.875 79.541 Q 463.041 89.648 452.934 91.992 A 19.263 19.263 0 0 1 448.246 92.578 A 15.745 15.745 0 0 1 433.341 83.564 Q 429.529 76.328 429.203 63.281 L 429.203 62.988 L 445.17 63.281 A 140.147 140.147 0 0 0 447.435 63.313 Q 465.526 63.416 470.219 58.447 A 9.839 9.839 0 0 0 472.392 53.6 A 13.489 13.489 0 0 0 472.563 51.416 A 17.003 17.003 0 0 0 466.057 37.63 A 25.872 25.872 0 0 0 461.576 34.717 A 33.894 33.894 0 0 0 449.245 31.117 A 41.731 41.731 0 0 0 445.024 30.908 A 35.862 35.862 0 0 0 434.151 32.465 A 27.202 27.202 0 0 0 419.096 44.238 A 34.524 34.524 0 0 0 413.935 59.212 A 43.463 43.463 0 0 0 413.676 64.014 A 41.708 41.708 0 0 0 415.029 74.992 A 27.53 27.53 0 0 0 427.885 91.992 A 32.806 32.806 0 0 0 443.341 96.624 A 39.753 39.753 0 0 0 445.463 96.68 A 36.085 36.085 0 0 0 454.854 95.535 A 23.627 23.627 0 0 0 469.34 84.814 A 40.362 40.362 0 0 0 471.28 80.969 A 37.155 37.155 0 0 0 471.391 80.713 Z M 442.24 59.18 L 429.203 58.887 A 53.378 53.378 0 0 1 430.009 50.88 Q 432.192 39.073 440.043 35.596 A 12.379 12.379 0 0 1 444.311 34.595 A 14.578 14.578 0 0 1 445.17 34.57 Q 452.853 34.57 455.912 40.965 A 17.491 17.491 0 0 1 457.035 44.092 A 22.354 22.354 0 0 1 457.768 49.805 A 12.914 12.914 0 0 1 457.392 53.046 Q 456.266 57.385 451.762 58.594 Q 448.393 59.473 442.24 59.18 Z" id="5" vector-effect="non-scaling-stroke"/>
		<path d="M 517.24 95.947 L 539.067 41.016 A 16.911 16.911 0 0 1 539.728 39.454 Q 540.491 37.898 541.358 37.18 A 2.616 2.616 0 0 1 542.436 36.621 A 10.718 10.718 0 0 1 543.592 36.495 A 13.248 13.248 0 0 1 544.34 36.475 Q 545.737 36.475 546.59 36.082 A 2.13 2.13 0 0 0 547.856 34.57 A 6.345 6.345 0 0 0 547.939 34.015 Q 548.002 33.435 548.002 32.666 L 525.444 32.666 L 525.444 36.475 L 536.283 36.475 L 518.705 80.713 L 499.516 36.475 L 509.037 36.475 L 509.037 32.666 L 478.129 32.666 L 478.129 36.475 L 484.867 36.475 L 512.113 96.533 A 113.966 113.966 0 0 1 508.809 103.858 Q 502.958 115.599 497.465 117.773 Q 495.707 118.506 493.803 118.506 A 3.143 3.143 0 0 1 491.404 117.383 Q 490.942 116.874 490.554 116.134 A 10.244 10.244 0 0 1 489.994 114.844 A 35.714 35.714 0 0 0 489.232 112.911 Q 487.884 109.785 486.625 108.984 Q 485.16 107.959 483.11 107.959 A 7.973 7.973 0 0 0 480.8 108.269 Q 478.252 109.039 477.299 111.722 A 8.178 8.178 0 0 0 477.104 112.354 A 7.452 7.452 0 0 0 476.957 113.818 A 7.602 7.602 0 0 0 479.734 119.716 Q 481.091 120.914 483.11 121.875 Q 486.479 123.34 490.58 123.34 A 19.379 19.379 0 0 0 503.583 118.251 Q 507.468 114.88 510.795 109.277 A 73.31 73.31 0 0 0 513.889 103.576 Q 515.606 100.072 517.24 95.947 Z" id="6" vector-effect="non-scaling-stroke"/>
		<path d="M 600.004 30.029 L 600.004 48.34 L 595.903 48.34 A 18.537 18.537 0 0 0 594.85 42.674 Q 592.661 36.79 586.026 35.256 A 22.921 22.921 0 0 0 581.108 34.717 Q 575.944 34.717 572.75 36.314 A 8.715 8.715 0 0 0 568.363 41.016 A 9.782 9.782 0 0 0 567.778 44.385 A 9.035 9.035 0 0 0 570.011 50.244 Q 571.198 51.684 573.015 52.999 A 27.721 27.721 0 0 0 576.713 55.225 A 72.133 72.133 0 0 0 577.812 55.719 Q 579.679 56.543 582.865 57.861 A 106.26 106.26 0 0 1 588.23 60.306 Q 593.025 62.667 595.903 64.851 A 17.743 17.743 0 0 1 598.393 67.09 Q 602.787 72.07 602.787 78.662 A 17.355 17.355 0 0 1 601.366 85.856 Q 598.555 92.101 590.19 94.922 A 32.222 32.222 0 0 1 583.323 96.432 A 40.78 40.78 0 0 1 578.764 96.68 A 47.379 47.379 0 0 1 569.283 95.654 A 34.624 34.624 0 0 1 558.988 91.699 A 11.675 11.675 0 0 1 558.91 93.113 Q 558.723 94.636 558.093 95.408 A 2.064 2.064 0 0 1 557.084 96.094 Q 556.205 96.24 555.033 96.24 L 555.033 73.975 L 559.574 73.975 Q 559.828 90.074 572.259 92.351 A 24.307 24.307 0 0 0 576.42 92.725 A 24.111 24.111 0 0 0 580.888 92.343 Q 587.066 91.175 589.164 86.426 Q 590.043 84.521 590.043 82.471 A 9.515 9.515 0 0 0 587.627 76.223 Q 585.321 73.48 580.815 71.191 Q 578.981 70.204 574.841 68.403 A 242.11 242.11 0 0 0 574.516 68.262 A 105.27 105.27 0 0 1 569.215 65.817 Q 564.213 63.326 561.306 61.032 A 17.305 17.305 0 0 1 559.135 59.033 Q 555.033 54.346 555.033 48.047 Q 555.033 37.061 567.045 32.813 Q 572.465 30.908 578.91 30.908 A 44.476 44.476 0 0 1 586.214 31.473 Q 590.163 32.131 593.4 33.556 A 23.844 23.844 0 0 1 596.195 35.01 A 12.526 12.526 0 0 1 596.286 33.435 Q 596.642 30.643 598.393 30.176 A 7.396 7.396 0 0 1 599.263 30.057 A 9.456 9.456 0 0 1 600.004 30.029 Z" id="7" vector-effect="non-scaling-stroke"/>
		<path d="M 642.045 91.553 L 636.186 91.553 L 636.186 58.447 Q 636.186 45.117 644.975 39.844 A 13.935 13.935 0 0 1 648.543 38.33 A 11.913 11.913 0 0 1 651.567 37.939 A 12.824 12.824 0 0 1 656.396 38.798 Q 659.798 40.17 661.739 43.735 A 16.961 16.961 0 0 1 662.992 46.729 Q 663.871 49.951 663.871 53.613 L 663.871 83.203 A 23.112 23.112 0 0 1 663.75 85.68 Q 663.305 89.785 661.235 90.82 Q 659.798 91.419 656.892 91.528 A 36.538 36.538 0 0 1 655.522 91.553 L 655.522 95.215 L 688.041 95.215 A 8.202 8.202 0 0 0 687.963 94.027 Q 687.654 91.933 686.137 91.699 A 6.826 6.826 0 0 0 685.493 91.604 Q 685.177 91.572 684.821 91.56 A 13.032 13.032 0 0 0 684.379 91.553 L 678.08 91.553 L 678.08 54.639 A 38.326 38.326 0 0 0 677.366 46.948 Q 676.446 42.464 674.338 39.196 A 17.39 17.39 0 0 0 666.654 32.666 A 19.336 19.336 0 0 0 658.451 30.908 A 25.412 25.412 0 0 0 648.969 32.623 A 23.329 23.329 0 0 0 639.848 39.258 Q 637.504 42.188 636.186 45.41 L 636.186 0 L 612.016 0 L 612.016 3.662 L 622.123 3.662 L 622.123 83.203 A 15.047 15.047 0 0 1 621.913 85.828 Q 621.667 87.214 621.131 88.243 A 5.181 5.181 0 0 1 617.729 90.967 A 12.157 12.157 0 0 1 616.29 91.276 Q 614.78 91.514 612.709 91.547 A 42.916 42.916 0 0 1 612.016 91.553 L 612.016 95.215 L 645.561 95.215 Q 645.561 93.818 645.168 92.965 A 2.13 2.13 0 0 0 643.656 91.699 A 7.396 7.396 0 0 0 642.786 91.581 A 9.456 9.456 0 0 0 642.045 91.553 Z" id="8" vector-effect="non-scaling-stroke"/>
	</g>
</svg>